<svg xmlns="http://www.w3.org/2000/svg" width="400" height="408.247">
  <path style="fill:#dc1c5c;fill-rule:evenodd;stroke:none;fill-opacity:1" d="M65.38 2.162C28.946 2.162 0 34.561 0 65.128v283.023c.382 29.728 48.193 57.525 65.056 57.502 38.11 0 232.082-.11 334.944-.049v-66.393c-60.252-.158-208.837-.158-217.621-.172-1.298-.002-1.612-.714-1.608-1.423.054-10.893.076-55.985.076-66.672 0-.693-.88-1.518-1.572-1.518h-59.9c-20.557 0-37.226-26.6-23.115-48.328l73.16-112.657c11.35-17.478 45.083-18.144 56.865 0l73.161 112.657c14.014 21.58-2.716 48.328-25.856 48.328h-57.313s-1.768-.039-1.774 1.439c-.038 9.304 0 35.362 0 36.24 0 .851.724 1.243 1.774 1.243 17.986 0 59.72-.012 89.358.022 29.639.033 75.344-.022 90.07-.022V65.128c0-30.567-29.586-62.966-71.047-62.966H65.38Z"/>
</svg>
