<?xml version="1.0" encoding="UTF-8" standalone="no"?>
<svg
   xmlns:dc="http://purl.org/dc/elements/1.1/"
   xmlns:cc="http://creativecommons.org/ns#"
   xmlns:rdf="http://www.w3.org/1999/02/22-rdf-syntax-ns#"
   xmlns:svg="http://www.w3.org/2000/svg"
   xmlns="http://www.w3.org/2000/svg"
   xmlns:sodipodi="http://sodipodi.sourceforge.net/DTD/sodipodi-0.dtd"
   xmlns:inkscape="http://www.inkscape.org/namespaces/inkscape"
   id="svg"
   version="1.1"
   width="400"
   height="408.2474226804124"
   viewBox="0, 0, 400,408.2474226804124"
   sodipodi:docname="favicon.svg"
   inkscape:version="0.92.3 (2405546, 2018-03-11)">
  <metadata
     id="metadata10">
    <rdf:RDF>
      <cc:Work
         rdf:about="">
        <dc:format>image/svg+xml</dc:format>
        <dc:type
           rdf:resource="http://purl.org/dc/dcmitype/StillImage" />
        <dc:title />
      </cc:Work>
    </rdf:RDF>
  </metadata>
  <defs
     id="defs8" />
  <sodipodi:namedview
     pagecolor="#ffffff"
     bordercolor="#666666"
     borderopacity="1"
     objecttolerance="10"
     gridtolerance="10"
     guidetolerance="10"
     inkscape:pageopacity="0"
     inkscape:pageshadow="2"
     inkscape:window-width="1366"
     inkscape:window-height="716"
     id="namedview6"
     showgrid="false"
     showguides="true"
     inkscape:guide-bbox="true"
     inkscape:zoom="1.4142136"
     inkscape:cx="-0.8797602"
     inkscape:cy="34.206135"
     inkscape:window-x="0"
     inkscape:window-y="0"
     inkscape:window-maximized="1"
     inkscape:current-layer="svg">
    <sodipodi:guide
       position="0,270"
       orientation="1,0"
       id="guide1"
       inkscape:locked="false"
       inkscape:label=""
       inkscape:color="rgb(0,0,255)" />
  </sodipodi:namedview>
  <g
     id="svgg">
    <path
       style="fill:#dc1c5c;fill-rule:evenodd;stroke:none;fill-opacity:1"
       d="M 65.380004,2.1623296 C 28.946345,2.1623296 0,34.56071 0,65.128301 V 348.15069 c 0.38158488,29.72831 48.193174,57.52485 65.056375,57.50195 38.110405,0 232.081275,-0.11039 334.943625,-0.0486 v -66.393 c -60.25212,-0.15808 -208.8373,-0.15808 -217.62119,-0.17159 -1.29746,-0.002 -1.61175,-0.7142 -1.60823,-1.4236 0.0541,-10.89307 0.0764,-55.98461 0.0764,-66.6723 0,-0.69234 -0.87986,-1.51754 -1.5722,-1.51754 -17.21758,0 -59.90042,4e-5 -59.90042,4e-5 -20.55604,-4e-5 -37.225175,-26.59924 -23.114496,-48.32774 26.087126,-40.17069 51.762746,-79.70768 73.160666,-112.65758 11.35,-17.477474 45.08231,-18.143419 56.86479,0 34.4712,53.08099 46.1411,71.05107 73.16066,112.65758 14.01427,21.58005 -2.71556,48.3277 -25.8558,48.32774 l -57.31363,-4e-5 c 0,0 -1.76762,-0.0387 -1.77369,1.43897 -0.0382,9.3038 3e-5,35.36241 3e-5,36.23934 0,0.85166 0.72436,1.24359 1.77361,1.24359 17.98698,5e-5 59.72023,-0.0116 89.35878,0.0217 29.63856,0.0333 75.34407,-0.0217 90.07067,-0.0217 0,-23.30572 0,-163.13969 -5e-5,-243.219549 0,-30.567591 -29.58691,-62.9659714 -71.04763,-62.9659714 H 65.380004 Z"
       id="path1"
       inkscape:connector-curvature="0"
       sodipodi:nodetypes="ccccccsssscccccccssssccccc" />
  </g>
  <g
     inkscape:groupmode="layer"
     id="layer1"
     inkscape:label="Circles"
     style="display:none">
    <ellipse
       id="path64"
       cx="200"
       cy="130"
       rx="35"
       ry="35"
       style="stroke-width:1.5;image-rendering:auto" />
  </g>
</svg>
