<svg xmlns="http://www.w3.org/2000/svg" width="16" height="16" viewBox="1 1 16 16">
  <path
    style="opacity:.98000004;fill:#da1b5b;fill-opacity:1;fill-rule:nonzero;stroke:none;stroke-width:1.88329434"
    d="M74.40878 49.79588h6.50318v-8.67662c0-1.58737-1.27477-2.87392-2.8476-2.87392h-9.49138c-1.5747 0-2.8476 1.28655-2.8476 2.87392v9.5791c0 1.58547 1.2729 2.8739 2.8476 2.8739h12.3473l.009-2.52046-7.16735.008c-.62987.0007-1.13788-.51271-1.13788-1.14464V48.4281h-1.82213c-1.40225 0-1.9759-.88734-1.27477-1.97144.70299-1.0841 1.84841-2.85878 2.54954-3.94288.70298-1.0841 1.84836-1.0841 2.54948 0 .70304 1.0841 1.85032 2.85878 2.5514 3.94288.70112 1.0841.12753 1.97144-1.27472 1.97144h-2.07904v.78139c0 .32355.26251.58652.58491.58652"
    transform="translate(-64.46269 -37.0277)"/>
</svg>